<svg width="36" height="36" viewBox="0 0 36 36" fill="none" xmlns="http://www.w3.org/2000/svg">
<path d="M18 0C25.2225 3.65395e-06 30.0518 0.403417 32.874 0.750977C34.7165 0.977939 35.9998 2.55571 36 4.41211V17.2109C35.9997 28.1558 23.2406 33.9897 19.207 35.5605C18.4275 35.8641 17.5725 35.8641 16.793 35.5605C12.7594 33.9897 0.000315732 28.1558 0 17.2109V4.39746C0.000112405 2.53154 1.29661 0.947615 3.14941 0.726562C5.97486 0.389474 10.7974 -3.64384e-06 18 0ZM18.0088 21.876C17.607 21.876 17.2126 21.8728 16.8291 21.8672C16.7143 21.8656 16.6214 21.9613 16.624 22.0781L16.7686 28.4277C16.7711 28.5396 16.8617 28.629 16.9717 28.6289L19.0469 28.627C19.1564 28.6267 19.2463 28.5372 19.249 28.4258L19.3936 22.0781C19.3962 21.9614 19.3031 21.8658 19.1885 21.8672C18.805 21.8728 18.4105 21.876 18.0088 21.876ZM11.5332 21.5078C11.3451 21.4708 11.0906 21.7131 11.1436 21.9004L12.4756 26.5996C12.8069 27.7237 13.6074 28.1418 14.6416 28.3613C14.773 28.3892 14.8909 28.2774 14.877 28.1416L14.2412 21.9541C14.2307 21.8538 14.1497 21.7764 14.0508 21.7705C12.9531 21.7058 12.0746 21.6146 11.5332 21.5078ZM24.4824 21.5088C23.9409 21.6154 23.0632 21.7059 21.9668 21.7705C21.8678 21.7764 21.7869 21.8538 21.7764 21.9541L21.1416 28.1309C21.1276 28.2669 21.2455 28.3791 21.377 28.3506C22.3873 28.1299 23.1656 27.7094 23.4961 26.6172L24.8682 21.9004C24.9225 21.7135 24.6705 21.4719 24.4824 21.5088ZM18.1182 3.5293C15.5498 3.52945 13.4678 5.60253 13.4678 8.15918C13.4677 8.25529 13.3766 8.32686 13.2852 8.30273C11.9395 7.94787 10.4935 8.33203 9.5752 9.42578C8.37597 10.8544 8.4922 12.9979 9.76953 14.4414C9.85679 14.54 9.83988 14.6977 9.73633 14.7783C8.54585 15.7043 8.2452 17.4695 9.08789 18.8594C9.98326 20.3359 11.8301 20.8294 13.2119 19.9619C13.5453 19.7526 13.8211 19.483 14.0352 19.1738C14.0831 19.1045 14.0786 19.0121 14.0312 18.9424C13.1711 17.6758 12.9665 16.1026 13.6357 14.7812C13.9989 14.0642 14.5709 13.5176 15.2598 13.1641C15.4724 13.055 15.6091 13.4035 15.4346 13.5684C14.6597 14.3001 14.1758 15.3394 14.1758 16.4922C14.1758 17.0665 14.2963 17.6125 14.5127 18.1064C15.1193 19.491 16.4816 20.466 18.0752 20.5029C18.1063 20.5036 18.1377 20.5039 18.1689 20.5039C19.513 20.5039 20.702 19.837 21.4258 18.8145C21.8897 18.1591 22.163 17.3576 22.1631 16.4922C22.1631 16.4662 22.1987 16.4604 22.2051 16.4854C22.4179 17.3731 22.3419 18.2995 21.9229 19.127C21.9214 19.1299 21.9194 19.1329 21.918 19.1357C21.8745 19.2209 21.8891 19.3265 21.9609 19.3887C22.0993 19.5083 22.2484 19.6194 22.4082 19.7197C24.0033 20.7212 26.0367 20.3111 26.9502 18.8047C27.7448 17.4942 27.4305 15.7858 26.2852 14.7041C26.1964 14.6203 26.1901 14.476 26.2725 14.3857C27.5897 12.9421 27.7214 10.7665 26.5088 9.32227C25.5941 8.23317 24.1564 7.84784 22.8154 8.19531C22.7923 8.20131 22.7696 8.18348 22.7695 8.15918C22.7695 5.60244 20.6867 3.5293 18.1182 3.5293Z" fill="#581B61"/>
<path d="M19.188 21.8674C19.3028 21.8657 19.3963 21.9613 19.3936 22.0781L19.2486 28.4255C19.246 28.5371 19.1564 28.6264 19.0467 28.6265L16.9713 28.6291C16.8614 28.6293 16.7715 28.54 16.7689 28.4282L16.6237 22.0781C16.621 21.9613 16.7144 21.8657 16.8292 21.8674C17.2127 21.873 17.6067 21.8759 18.0085 21.8759C18.4103 21.8759 18.8044 21.873 19.188 21.8674Z" fill="#FBBB18"/>
<path d="M11.1433 21.9005C11.0902 21.7132 11.345 21.4709 11.5331 21.5079C12.0745 21.6147 12.9529 21.7055 14.0506 21.7702C14.1497 21.7761 14.2304 21.854 14.2407 21.9546L14.877 28.1416C14.8909 28.2774 14.7732 28.3893 14.6418 28.3614C13.6075 28.1419 12.8068 27.7238 12.4754 26.5995L11.1433 21.9005Z" fill="#FBBB18"/>
<path d="M24.4822 21.5083C24.6703 21.4713 24.9227 21.7135 24.8684 21.9004L23.4961 26.6168C23.1656 27.7093 22.3876 28.13 21.3772 28.3507C21.2456 28.3794 21.1273 28.2673 21.1413 28.1312L21.7765 21.9546C21.7869 21.854 21.8676 21.7761 21.9668 21.7702C23.0632 21.7056 23.9407 21.6149 24.4822 21.5083Z" fill="#FBBB18"/>
<path d="M18.1184 3.5296C20.6869 3.52961 22.7691 5.60226 22.7691 8.159C22.7691 8.18338 22.7917 8.20128 22.8149 8.19527C24.1561 7.84757 25.5942 8.23321 26.5089 9.32268C27.7216 10.767 27.5898 12.9424 26.2724 14.3861C26.19 14.4764 26.1959 14.6199 26.2847 14.7038C27.4304 15.7855 27.7454 17.4945 26.9506 18.8051C26.0371 20.3116 24.0035 20.721 22.4084 19.7195C22.2485 19.6192 22.0993 19.5082 21.9609 19.3886C21.889 19.3265 21.8746 19.2212 21.9181 19.136C21.9196 19.1331 21.9212 19.1302 21.9227 19.1272C22.3418 18.2997 22.418 17.3735 22.2051 16.4857C22.199 16.4603 22.1626 16.4658 22.1626 16.4919C22.1626 17.3575 21.8896 18.159 21.4256 18.8145C20.7018 19.837 19.5129 20.504 18.1689 20.504C18.1376 20.504 18.1064 20.5036 18.0753 20.5029C16.4817 20.466 15.119 19.4913 14.5124 18.1067C14.2959 17.6126 14.1755 17.0664 14.1755 16.4919C14.1755 15.339 14.6596 14.2997 15.4346 13.5679C15.6092 13.4031 15.4727 13.0548 15.2601 13.1639C14.571 13.5175 13.9991 14.0642 13.6358 14.7813C12.9666 16.1026 13.1715 17.6755 14.0316 18.942C14.079 19.0118 14.083 19.1041 14.0351 19.1734C13.8209 19.4828 13.5451 19.7525 13.2115 19.962C11.8297 20.8295 9.98364 20.3358 9.08827 18.8593C8.24548 17.4694 8.54554 15.7042 9.73606 14.7782C9.83969 14.6976 9.85634 14.5404 9.76903 14.4417C8.49162 12.9982 8.37597 10.8541 9.57542 9.42556C10.4938 8.33178 11.9396 7.94736 13.2853 8.30226C13.3768 8.3264 13.4677 8.2552 13.4677 8.159C13.4677 5.60226 15.5499 3.52961 18.1184 3.5296Z" fill="#FBBB18"/>
</svg>
